<?xml version="1.0" ?><svg enable-background="new 0 0 100 100" id="Layer_1" version="1.1" viewBox="0 0 100 100" xml:space="preserve" xmlns="http://www.w3.org/2000/svg" xmlns:xlink="http://www.w3.org/1999/xlink"><path d="M73.4,11.3c-2.7-3.2-4.9,0-4.9,0c-1.3,5.6-4,10.8-6.7,15c-3.4-0.8-7.1-1.2-11.2-1.2c-4.5,0-8.5,0.5-12.1,1.5  c-2.8-4.2-5.6-9.6-7-15.3c0,0-2.2-3.1-4.9,0C23.8,14.5-2.8,38.4,2.1,43c4.9,4.6,26.5-28.3,26.5-28.3s2.6,6.1,7.1,12.8  C25,31.5,19.4,41,20.6,57.7C22,76.2,35.8,91.6,50,92l-3.8-3.8l2.8-2.8l-2.8-2.8l3.1-3.1c-3.2-0.5-6.5-3.1-7.1-3.6h16.6  c0,0-4,3.1-7.3,3.6l3,3l-2.8,2.8l2.8,2.8L50.5,92c0,0,0,0,0,0C64.8,92,79,76.4,80.3,57.7c1.3-17.2-4.6-26.8-15.9-30.6  c4.3-6.6,6.8-12.5,6.8-12.5s21.9,32.8,26.7,28.2C102.8,38.2,76.1,14.5,73.4,11.3z M38,49.4c-1,5.6-4.7,9.7-8.3,9.1  s-5.8-5.7-4.8-11.3c1-5.6,4.7-9.7,8.3-9.1C36.8,38.7,39,43.7,38,49.4z M67.8,38.1c3.6-0.6,7.3,3.4,8.3,9.1c1,5.6-1.2,10.7-4.8,11.3  C67.6,59,63.9,55,63,49.4C62,43.7,64.2,38.7,67.8,38.1z" fill="#53514F"/></svg>